<svg xmlns="http://www.w3.org/2000/svg" version="1.1" xmlns:xlink="http://www.w3.org/1999/xlink" xmlns:svgjs="http://svgjs.dev/svgjs" viewBox="0 0 8.953476027926998 8.953476027926996"><g transform="matrix(1,0,0,1,2.9332021017279524,2.935833736002422)"><rect width="8.953476027926998" height="8.953476027926998" x="-2.933202101727953" y="-2.935833736002423" fill="#ffffff"></rect><g><path d=" M -1.5398572711607768 0.17807687220371182 L -1.0433036040927535 0.2674102686537443 L -1.418040572677206 -0.06958558351084099 L -1.3275607785136843 -0.2535377698205632 L -0.7985924726120261 0.27967656921349715 L -0.8842172534301882 0.45375815040416106 L -1.6307784301738768 0.3629263862515302 L -1.5398572711607768 0.17807687220371182 M -0.6283915141145356 0.005034641338422775 L -1.192677350305055 -0.42587311569870284 L -1.074329445203309 -0.5808530284552539 L -0.5100436090127899 -0.14994527141812827 L -0.6283915141145356 0.005034641338422775 M -0.7948225750542623 -0.8859312213659406 L -0.3666115141357814 -0.6191330067784567 L -0.5899814141412753 -1.0709071624929418 L -0.4378348996950349 -1.208298712967707 L -0.14382463238891557 -0.5171525904157648 L -0.28780718752340645 -0.38713326947866983 L -0.9477112676197526 -0.7478694682059326 L -0.7948225750542623 -0.8859312213659406 M -0.12135249155433919 -1.3891958006843552 L 0.07155635498703994 -1.4907348420727526 L 0.6022449728958185 -0.9677189811066912 L 0.42703418567016227 -0.8754954481025505 L 0.32424057487077457 -0.9784686173206727 L 0.15699391433719356 -0.8904370630894475 L 0.18457077304475916 -0.7478729832382347 L 0.008475082853316765 -0.6551836748148813 L -0.12135249155433919 -1.3891958006843552 M 0.23625777843373602 -1.0790669648772733 L 0.06406503678600114 -1.2709488549134007 L 0.12210529584732363 -1.0189819357988181 L 0.23625777843373602 -1.0790669648772733 M 1.2109952774275916 -1.1020700835389428 L 1.140582411149948 -1.4693819786125528 L 1.0732253745650837 -1.1886810174056035 L 0.9710851684483578 -1.1691009690289327 L 0.8046982718045614 -1.4049937426046541 L 0.875111138082205 -1.037681847531044 L 0.6835982516133441 -1.000969256824786 L 0.5499267675033792 -1.698272587044741 L 0.7591177665693656 -1.7383740322777306 L 0.9722638020853958 -1.4391520953416173 L 1.060627798087008 -1.7961728289280956 L 1.2688366797864874 -1.8360860044651557 L 1.4025081638964525 -1.1387826742452007 L 1.2109952774275916 -1.1020700835389428 M 1.7910496567351752 -1.8200593954867292 L 2.0078327447085567 -1.7970573788637179 L 2.1576563505784923 -1.0671745888733455 L 1.9607616192999167 -1.088066328741952 L 1.9326680758491974 -1.2308275027928213 L 1.7447231050832843 -1.2507696181219459 L 1.6882911325810799 -1.116977120277297 L 1.490401983467764 -1.1379743739836239 L 1.7910496567351752 -1.8200593954867292 M 1.9155579218758794 -1.363372750278385 L 1.8792880577173008 -1.61862458073983 L 1.7872780211943833 -1.3769840353442955 L 1.9155579218758794 -1.363372750278385 M 2.2396915559757247 -1.0394973597286175 L 2.4945511228773407 -1.7021787320024433 L 2.7988245416960273 -1.5851587055095886 Q 2.8473589520597438 -1.5664929344125689 2.880888430193708 -1.5310983854528204 Q 2.914417908327672 -1.4957038364930717 2.931542259437186 -1.4510831395119836 Q 2.9486666105467 -1.4064624425308956 2.9492061923370114 -1.3591131146424074 Q 2.9497457741273223 -1.3117637867539194 2.9335927029856705 -1.2697628547083952 Q 2.9188754603899434 -1.2314953388446952 2.8940348406581866 -1.2003353707551376 Q 2.86919422092643 -1.1691754026655798 2.8364199280817832 -1.1480307643727794 Q 2.803645635237137 -1.126886126079979 2.765522291643476 -1.1169056114018856 L 2.8118375858403097 -0.819456635065673 L 2.612099820112706 -0.8962734622726389 L 2.5736832201835846 -1.1446142862422108 L 2.4999482505925537 -1.1729719000242216 L 2.421695594839663 -0.9695007181147934 L 2.2396915559757247 -1.0394973597286175 M 2.560970963794349 -1.3316420877517574 L 2.675773511385448 -1.287490359964576 Q 2.6869737599309214 -1.2831828743268021 2.7004712686592685 -1.2876345322346143 Q 2.713968777387616 -1.2920861901424265 2.727071204048716 -1.3052610303915715 Q 2.7401736307098163 -1.3184358706407164 2.748788601985364 -1.3408363677316628 Q 2.7577625303973927 -1.364170218868065 2.755751813762955 -1.3826216962781803 Q 2.7537410971285174 -1.4010731736882955 2.7453047857886466 -1.4139603243034147 Q 2.7368684744487757 -1.4268474749185338 2.7256682259033025 -1.4311549605563076 L 2.6155324485394837 -1.4735119026610835 L 2.560970963794349 -1.3316420877517574 M 2.8869398367198276 -0.7704976789367156 L 3.3069048931443006 -1.342974186212245 L 3.464134356410115 -1.2276316707153825 L 3.304429334952921 -1.0099293369627165 L 3.638296223412248 -1.0998676535496275 L 3.8156833101736796 -0.9697376360659878 L 3.419559610427103 -0.8659396857052777 L 3.410231742666051 -0.3866141273599789 L 3.2296194361453203 -0.5191101451615028 L 3.242091287478129 -0.8336597484426583 L 3.165426816277215 -0.8204476761039146 L 3.044169299985642 -0.6551551634398532 L 2.8869398367198276 -0.7704976789367156 M 3.9008949142077562 -0.044762617799051996 L 3.76943555886125 0.0630262401217968 L 3.4486051935203705 -0.32825866461545206 L 3.997641324673427 -0.7784356594613498 L 4.312765221065556 -0.3941103676542102 L 4.181305865719049 -0.2863215097333614 L 3.9898221298831884 -0.5198551880548024 L 3.91249309732642 -0.45644997751312666 L 4.076078540523943 -0.2569410735166638 L 3.953898669084249 -0.15676084086081613 L 3.7903132258867256 -0.356269744857279 L 3.703704709423145 -0.28525590905060216 L 3.9008949142077562 -0.044762617799051996 M 4.55693265737105 0.4274065424001944 L 4.468549630849351 0.24354670278625185 L 3.981861820106561 0.47750177299074875 L 3.8973780447549373 0.301753396889186 L 4.3840658554977265 0.0677983266846891 L 4.295249578846019 -0.11696278665285126 L 4.4484661118576385 -0.19061530875426697 L 4.710149190382668 0.35375402029877867 L 4.55693265737105 0.4274065424001944" fill="#173054" fill-rule="nonzero"></path></g><g><path d=" M -0.9420729847759444 2.841879024679807 Q -0.9324747319075117 2.821339464268892 -0.9280815697726201 2.7976128942163845 Q -0.9236884076377285 2.7738863241638767 -0.924500336236378 2.746972744469776 Q -0.9253122648350274 2.7200591647756758 -0.9311888829055932 2.691533468288952 Q -0.9370655009761591 2.663007771802228 -0.9498405194327546 2.633668397176417 Q -0.9869679168222351 2.548400839670156 -1.0368823262621778 2.5226899133884806 Q -1.0867967357021207 2.496978987106805 -1.1427249185825716 2.52133136603969 Q -1.1812328477789478 2.5380985777639715 -1.195053382549549 2.566475378476078 Q -1.2088739173201506 2.5948521791881842 -1.2050610987981805 2.641182109200203 Q -1.2012482802762103 2.687512039212221 -1.1887710533688503 2.756245719520366 Q -1.1731000718473412 2.832314243484963 -1.1713138289303124 2.8915241188119842 Q -1.1695275860132837 2.950733994139005 -1.1919330858498471 2.9932103826045253 Q -1.2143385856864104 3.0356867710700453 -1.2730173349380312 3.061236807983236 Q -1.3179432523338033 3.0807985549948977 -1.3585352159964437 3.0777501970744927 Q -1.3991271796590838 3.0747018391540877 -1.4347051677385743 3.0531100174566106 Q -1.4702831558180647 3.0315181957591335 -1.4995903019323398 2.9930170115353136 Q -1.5288974480466149 2.9545158273114938 -1.5512537303456568 2.9031719217163254 Q -1.5732107933179302 2.852744871578214 -1.5828275315635945 2.801852648739018 Q -1.5924442698092585 2.7509604258998217 -1.5897798917300727 2.7007194954799822 Q -1.5871155136508872 2.650478565060143 -1.5705951263978828 2.600748525798035 L -1.5043616889087568 2.610082965169205 Q -1.5151136308412847 2.6354876053886516 -1.5205792891804066 2.6667706132191014 Q -1.5260449475195286 2.6980536210495516 -1.525906295798341 2.7334404939786507 Q -1.5257676440771533 2.76882736690775 -1.5176733352512548 2.806203591498136 Q -1.5095790264253564 2.8435798160885217 -1.493610253354612 2.8802540343707848 Q -1.4596766105792804 2.958186748220594 -1.4122911733890178 2.9893615833009544 Q -1.364905736198755 3.020536418381315 -1.3089775533183041 2.99618403944843 Q -1.2686359132078149 2.978618389070611 -1.2539205074382622 2.946034545941885 Q -1.2392051016687096 2.9134507028131593 -1.242781086583641 2.8626549123193774 Q -1.2463570714985723 2.8118591218255955 -1.2596327370594695 2.7412917306033373 Q -1.2735884244703848 2.666657698226085 -1.2746946455373958 2.6115144640540584 Q -1.2758008666044065 2.5563712298820325 -1.254349446168554 2.519218348953573 Q -1.2328980257327018 2.4820654680251133 -1.180637264680477 2.4593099663993025 Q -1.1201248045147432 2.4329614908325747 -1.0654332530986892 2.4445948138189415 Q -1.0107417016826354 2.4562281368053087 -0.9664400968159953 2.499107243678471 Q -0.9221384919493553 2.5419863505516336 -0.8925962617684783 2.60983365437382 Q -0.8738329534103537 2.652925860855479 -0.8663746975182627 2.6938510904705724 Q -0.8589164416261714 2.734776320085665 -0.8616467730796729 2.773593781235952 Q -0.8643771045331743 2.812411242386239 -0.8771556220706436 2.8506958279206884 L -0.9420729847759444 2.841879024679807 M -0.37235578403829983 3.414854005577774 L -0.9290199066137789 3.8555637225540074 L -0.9718494424889339 3.8014653782473764 L -0.7115501626367381 3.5953870317176446 L -0.9728724032663076 3.265308728049649 L -1.2331716831185036 3.471387074579381 L -1.2766219369048928 3.4165046962972916 L -0.7199578143294136 2.9757949793210576 L -0.6765075605430244 3.0306773576031474 L -0.9242622967878855 3.226824217553133 L -0.662940056158316 3.5569025212211285 L -0.415185319913455 3.360755661271143 L -0.37235578403829983 3.414854005577774 M -0.4073432858847198 4.301451813977414 Q -0.46859852131132285 4.2581759993365385 -0.5011091202686095 4.198476242591318 Q -0.5336197192258965 4.138776485846098 -0.5398400646227688 4.071326079597183 Q -0.5460604100196411 4.0038756733482685 -0.528444884765001 3.93734791019631 Q -0.5108293595103608 3.870820147044351 -0.4715926209026333 3.815282066924231 Q -0.43062484970927095 3.757293777387047 -0.37298923730925004 3.7190395464671266 Q -0.3153536249092292 3.680785315547207 -0.24905306689223372 3.6657941179087588 Q -0.1827525088752382 3.6508029202703107 -0.11590976363618988 3.661906856910426 Q -0.04906701839714167 3.673010793550541 0.008921271140042597 3.713978564743903 Q 0.07017650656664554 3.7572543793847792 0.10211009466205412 3.817770872602354 Q 0.13404368275746248 3.878287365819929 0.13956715448721835 3.9458576348740815 Q 0.14509062621697422 4.013427903928235 0.12776360639327322 4.079547298844016 Q 0.11043658656957223 4.1456666937597975 0.07177685882372309 4.200388037407563 Q 0.03080908763036072 4.258376326944747 -0.026826524769660187 4.296630557864667 Q -0.0844621371696811 4.334884788784587 -0.15035432695049922 4.350164491853974 Q -0.21624651673131745 4.365444194923361 -0.2828007565394265 4.353931890047069 Q -0.34935499634753564 4.342419585170776 -0.4073432858847198 4.301451813977414 M -0.41442106783780386 3.855672827255715 Q -0.4478876978267478 3.903043542652288 -0.4632397859624998 3.957702150298953 Q -0.47859187409825177 4.012360757945618 -0.4739520483337883 4.066450701714081 Q -0.4693122225693248 4.120540645482543 -0.44383726977614096 4.168535715856334 Q -0.4183623169829571 4.216530786230123 -0.3709916015863841 4.249997416219068 Q -0.321170676772747 4.285195078793646 -0.26684518088564596 4.292353325549701 Q -0.2125196849985449 4.2995115723057555 -0.15981931507247793 4.284707146965483 Q -0.10711894514641096 4.269902721625211 -0.06183611296447389 4.237001884104222 Q -0.01655328078253704 4.204101046583233 0.015182316620771852 4.159180540603724 Q 0.04864894660971586 4.111809825207151 0.06371252931452864 4.057559585796663 Q 0.07877611201934154 4.003309346386175 0.07401642344963988 3.948522528950596 Q 0.06925673487993822 3.893735711515017 0.04390164489199255 3.8464375148083434 Q 0.018546554904046886 3.79913931810167 -0.02882416049252612 3.7656726881127263 Q -0.07782834883380851 3.7310520364000253 -0.13186533928997046 3.7234854214077937 Q -0.1859023297461323 3.7159188064155613 -0.23860269967219938 3.7307232317558334 Q -0.29130306959826635 3.745527657096106 -0.33699427001638066 3.778139989186156 Q -0.38268547043449497 3.810752321276206 -0.41442106783780386 3.855672827255715 M 0.1721949716104632 4.63216303158444 L 0.41944503989349946 3.966605067366421 L 0.6950422814147637 4.068987490007565 Q 0.7381629382514241 4.085006508516043 0.7676365020894749 4.116224436613282 Q 0.7971100659275256 4.14744236471052 0.8120396374471114 4.1876587530894085 Q 0.826969208966697 4.227875141468297 0.8282122367558638 4.270474494537509 Q 0.8294552645450304 4.31307384760672 0.815177443700517 4.351507476526352 Q 0.7949795507985226 4.405877000363881 0.7531413724828383 4.44527327982305 Q 0.7113031941671539 4.484669559282221 0.6570388722811173 4.498647519442724 Q 0.6027745503950807 4.512625479603226 0.5446554042239297 4.491034628570059 L 0.3290521200406278 4.4109395360276675 L 0.23781336244885945 4.65653979887995 L 0.1721949716104632 4.63216303158444 M 0.35064297107379433 4.352820389856516 L 0.5634340385068792 4.4318707638005295 Q 0.602805073009917 4.446496824177836 0.6398741553497317 4.435731921276089 Q 0.6769432376895463 4.424967018374342 0.7057639953207839 4.396203083845814 Q 0.7345847529520215 4.367439149317286 0.7495590528621209 4.3271307092308415 Q 0.7648815923050132 4.285884863560993 0.7590183433502413 4.244236066319123 Q 0.7531550943954695 4.202587269077253 0.7301765628898352 4.171115264218259 Q 0.7071980313842009 4.139643259359264 0.6706392136313801 4.126061917580337 L 0.4634725796987292 4.0491009808330825 L 0.35064297107379433 4.352820389856516 M 1.6839558352766895 4.342880210355155 Q 1.6693240149534816 4.325562305342441 1.6496182546414455 4.311636322054911 Q 1.6299124943294094 4.29771033876738 1.6051327940285447 4.287176277205033 Q 1.58035309372768 4.276642215642685 1.5519883809092871 4.270032142516758 Q 1.5236236680908943 4.263422069390831 1.4916310336900074 4.262735524351381 Q 1.39865243996243 4.260740252830479 1.3544008166705845 4.29529880945596 Q 1.3101491933787388 4.329857366081441 1.308840466897287 4.390843325408132 Q 1.3079393765330085 4.4328336580592955 1.327919749166489 4.457267951775859 Q 1.3479001217999695 4.481702245492421 1.3915681761139465 4.497642792297081 Q 1.4352362304279236 4.513583339101741 1.502877306010083 4.531038564511016 Q 1.5785165401924641 4.548665426180154 1.6330318808543662 4.571840361617319 Q 1.6875472215162683 4.595015297054483 1.7167357712989944 4.6331503014675075 Q 1.74592432108172 4.671285305880531 1.7445512310028195 4.735270574682304 Q 1.7434999589111613 4.7842592961086625 1.7237319690662534 4.819843373692486 Q 1.7039639792213452 4.855427451276311 1.6694568963908152 4.87869247297256 Q 1.6349498135602853 4.901957494668809 1.5877139046604305 4.912446484629935 Q 1.5404779957605754 4.922935474591061 1.4844908855590235 4.921734020772024 Q 1.4295035451824993 4.920554021485469 1.3792618961421523 4.907973214607268 Q 1.329020247101805 4.895392407729067 1.2845133319564215 4.871932132704217 Q 1.2400064168110378 4.848471857679366 1.2017663022718559 4.812643187036566 L 1.2379811544993464 4.756407215646885 Q 1.2565476905252166 4.776810248264613 1.2826661365700016 4.794874765313392 Q 1.3087845826147868 4.812939282362172 1.340976738473428 4.827633332218252 Q 1.373168894332069 4.842327382074331 1.4104993537769872 4.850630200730145 Q 1.4478298132219054 4.858933019385958 1.4878206062230137 4.8597912006852715 Q 1.5728010413503695 4.861614835946311 1.6209551985461532 4.831641061663386 Q 1.669109355741937 4.801667287380461 1.670418082223389 4.74068132805377 Q 1.671362081652633 4.696691455752551 1.6479361509627626 4.669682646609728 Q 1.6245102202728923 4.642673837466907 1.57688599572377 4.62464793288226 Q 1.5292617711746475 4.606622028297614 1.4596211559424328 4.589123893823373 Q 1.38600291594259 4.570540171394173 1.3354652000483158 4.548450823911968 Q 1.2849274841540417 4.526361476429762 1.2601735349864922 4.491322326887993 Q 1.2354195858189427 4.456283177346226 1.2366424941704635 4.399296297319646 Q 1.2380584933143295 4.3333114888678175 1.2715271938556985 4.288519234134748 Q 1.3049958943970674 4.2437269794016785 1.3624869559369932 4.221455296865048 Q 1.4199780174769192 4.199183614328417 1.4939609845289699 4.200771249732146 Q 1.5409501663052725 4.2017796127588385 1.581237026160308 4.2121463346621555 Q 1.6215238860153436 4.222513056565473 1.655629763394109 4.241249094786629 Q 1.6897356407728743 4.259985133007786 1.7191494631466697 4.287622554258018 L 1.6839558352766895 4.342880210355155 M 2.693121278415427 4.726707740285547 L 2.5424696332792083 4.16868616201303 L 2.4113814724662763 4.669151839252421 L 2.3689023211790947 4.68062013057767 L 2.002791324880701 4.314385590440618 L 2.1534429700169198 4.872407168713135 L 2.0858625020600408 4.890652177639667 L 1.9008059829480766 4.205193145505606 L 1.9703173214180094 4.186426850609745 L 2.3644153780230086 4.58343027852966 L 2.507099324046936 4.041509351136151 L 2.575645227260342 4.0230036992249545 L 2.7607017463723063 4.708462731359015 L 2.693121278415427 4.726707740285547 M 2.9388625516534077 3.8119893005756107 L 2.9887935951241613 3.780558568832272 L 3.6166830419316645 4.224270009509395 L 3.554057665375126 4.263691605255277 L 3.3579343018779992 4.124826108134596 L 3.087968151586975 4.294765149255358 L 3.129220651437527 4.531119187207072 L 3.065748986008603 4.571073507219791 L 2.9388625516534077 3.8119893005756107 M 3.315093845243835 4.086803808422765 L 3.007088318833164 3.8659359843729835 L 3.0713626499967663 4.240228397271604 L 3.315093845243835 4.086803808422765 M 3.843056908083981 4.022785056322637 L 3.3256454073061485 3.5365903022756293 L 3.5310798104246026 3.3179657244821787 Q 3.5625797522360987 3.2844432892205164 3.602447666558022 3.2697616882308482 Q 3.642315580879944 3.2550800872411796 3.6855161784371546 3.2565661460219677 Q 3.7287167759943647 3.258052204802756 3.7681164562316227 3.273805464694024 Q 3.8075161364688803 3.289558724585292 3.8373948287673185 3.317634759678148 Q 3.8745610069922054 3.3525586082082848 3.8940014574585233 3.3975843662326275 Q 3.9134419079248413 3.4426101242569698 3.9117233765944808 3.489708920951435 Q 3.9100048452641203 3.5368077176459 3.884422826691616 3.578635463530134 L 4.203251894885004 3.639463296591454 L 4.149154168730478 3.697034435410396 L 3.843863553054925 3.6393227383253004 L 3.700059470872007 3.7923599427807155 L 3.890991602144954 3.971772654837499 L 3.843056908083981 4.022785056322637 M 3.654877058128027 3.7499034994695686 L 3.8137463298729655 3.580833825975967 Q 3.842507146309549 3.5502263850848834 3.846974150334291 3.5118852078071456 Q 3.8514411543590334 3.473544030529408 3.8357543649782313 3.435476004064639 Q 3.820067575597429 3.39740797759987 3.789460134706346 3.368647161163286 Q 3.7581239452226183 3.339201563382974 3.718171385388382 3.32841764189347 Q 3.678218825554146 3.3176337204039656 3.6395665885484716 3.325910469431039 Q 3.600914351542797 3.334187218458112 3.57352309779367 3.363337162163905 L 3.418762514111101 3.5280343441016377 L 3.654877058128027 3.7499034994695686 M 4.06216865439313 2.6261243836069923 L 3.938207712151309 2.846675250298828 L 4.503096888500359 3.164172050981437 L 4.4687993945994595 3.225194029908032 L 3.90391021825041 2.907697229225423 L 3.7799492760085887 3.1282480959172587 L 3.7259012375307474 3.0978703156050336 L 4.008120615915289 2.5957466032947676 L 4.06216865439313 2.6261243836069923 M 4.495106026990509 2.634066249851374 L 4.034738057390002 2.46919559580431 L 4.057664855907794 2.405177146043912 L 4.5180328255083015 2.5700478000909763 L 4.495106026990509 2.634066249851374 M 4.709756123245961 2.7109384566463244 L 4.604313970699423 2.6731766708523135 L 4.627240769217215 2.6091582210919158 L 4.732682921763753 2.6469200068859267 L 4.709756123245961 2.7109384566463244" fill="#225777" fill-rule="nonzero"></path></g><g clip-path="url(#SvgjsClipPath1009)"><g clip-path="url(#bc593b0a9-e915-493b-b4c0-bfaaa1ed488099fa1d9e-962e-47bd-969f-8a2a982390b1)"><path d=" M 1.9080886814741562 2.030209697451005 L 1.1857572662963545 2.030209697451005 L 1.1857572662963545 2.3174259325255826 L 1.9080886814741562 2.3174259325255826 Z M 2.4625558928478988 1.9863289814798386 L 2.4625558928478988 0.8025111032813708 C 2.4625558959194063 0.7965257586510183 2.4577070323390973 0.7916719773600084 2.45172169078171 0.791665913181572 L 0.6421297510051351 0.791665913181572 C 0.6361435196277084 0.7916719744253486 0.6312930828587976 0.7965248696011368 0.631290054922612 0.8025111032813704 L 0.631290054922612 1.9863289814798384 C 0.631290054922612 1.9923119662917326 0.6361412721759663 1.997163183545087 0.6421297510051351 1.997163183545087 L 2.4517216907826502 1.997163183545087 C 2.4577046755945444 1.997163183545087 2.4625558928478983 1.9923119662917326 2.4625558928478983 1.9863289814798384 M 1.543538659244184 -5.483741149119036e-16 C 0.6910265047478901 0.00008790427639106049 0.00004395213819573471 0.691070456886085 0 1.5435331652269093 C 0 2.09059444131467 0.2847713973874396 2.5715681836078694 0.7139640268687891 2.845466920809139 L 0.7192767415731985 2.837154472672871 L 0.68608188920087 2.891396905223682 C 0.6809669322285903 2.8997528876208953 0.67938184420049 2.909798882237097 0.681675494796474 2.919323817596161 C 0.683969145392458 2.9288487529552247 0.6899535498377004 2.9370719770991576 0.6983115716538332 2.9421836009088533 L 0.8243058698091811 3.019270157286898 C 0.8417025034220458 3.029909713269045 0.8644297858732756 3.024440607429234 0.8750815774598035 3.0070514628684837 L 0.8772352322313945 3.0035188097610015 L 0.93065905620831 3.0358950535594347 L 1.0640757717014626 2.8171947079147333 L 1.010943130640094 2.7849997666863575 L 1.0148109188013186 2.7786706587861714 C 1.0199243251697043 2.7703173994295147 1.0215079797266478 2.760274270010185 1.0192131502847173 2.750752840264592 C 1.0169183208427872 2.7412314105189988 1.0109331955669205 2.7330124881004982 1.002575742331081 2.7279059391700984 L 0.8765869381930075 2.6508138887747794 C 0.8682357719748142 2.64569655802204 0.8581926622719793 2.6441095206361904 0.8486705059309534 2.646402464127401 C 0.8391483495899275 2.6486954076186113 0.8309285364610763 2.654680172634385 0.8258222185769338 2.663038077210468 L 0.7978137185117018 2.7088142291413257 C 0.414243408477525 2.4626492911415645 0.16020004970617843 2.0330281283128064 0.16020004970617843 1.5435331652269093 C 0.1602549898789231 1.1612869133558787 0.3149115761551646 0.8159879276556378 0.5653673416462843 0.5654057997672053 C 0.8159549635519913 0.3149445402588112 1.16127592532133 0.160282459965295 1.5435386592441838 0.1602494958616485 C 1.9257574410288414 0.160282459965295 2.2710838968154548 0.3149445402588112 2.5216605306866127 0.5654057997672053 C 2.7721217901950075 0.815987927655638 2.926789364505798 1.1612869133558787 2.926822328609444 1.5435331652269093 C 2.9269871491276778 2.266589790684941 2.3719046078191957 2.860157923001064 1.6650443452862922 2.921597518181427 C 1.6652146598218005 2.921597518181427 1.6649289709235282 2.9215645540777797 1.6649289709235282 2.9215645540777797 C 1.6612754494360078 2.9220864857188538 1.6447933976126072 2.917982454814827 1.6373709802748024 2.9112358016017823 C 1.629728802246019 2.903796902212154 1.6247182584917053 2.9006323482620613 1.6236139610195373 2.876552070548073 L 1.6236139610195373 2.429773091771155 L 2.2331312254834375 2.429773091771155 L 2.2331312254834375 2.346703550581217 L 0.8607202163043471 2.346703550581217 L 0.8607202163043471 2.429773091771155 L 1.4634139113133595 2.429773091771155 L 1.4634139113133595 2.876552070548073 C 1.4623315899102896 2.9457107599990615 1.495960469647301 3.005139544856969 1.5379897017969724 3.036933422824309 C 1.5801892484821523 3.06943053500278 1.6244270755761594 3.0812536601774325 1.6649289709235284 3.0818085559221537 C 1.6689121334475172 3.081775591818507 1.673444697698952 3.0816876875421158 1.6787903765070085 3.0812536601774325 C 2.468220224657874 3.0125454801429505 3.086912497970133 2.3504065182242067 3.0870718244710926 1.5435331652269093 C 3.0870004022465247 0.691070456886085 2.3960178496368303 0.000038458120920746225 1.5435386592441838 -5.483741149119036e-16" fill="#173054" transform="matrix(1,0,0,1,0,0)" fill-rule="nonzero"></path></g><g clip-path="url(#bc593b0a9-e915-493b-b4c0-bfaaa1ed488099fa1d9e-962e-47bd-969f-8a2a982390b1)"><path d=" M 2.383985951805748 1.8698448272265924 L 0.709854501947488 1.8698448272265924 L 0.709854501947488 0.8566876076248879 L 2.383985951805748 0.8566876076248879 Z" fill="#225777" transform="matrix(1,0,0,1,0,0)" fill-rule="nonzero"></path></g><g clip-path="url(#bc593b0a9-e915-493b-b4c0-bfaaa1ed488099fa1d9e-962e-47bd-969f-8a2a982390b1)"><path d=" M 1.8614389807966587 1.5535103005973405 L 1.8081744833207025 1.5535103005973405 L 1.8081744833207025 1.6067802920905712 L 1.3133722995476702 1.6067802920905712 L 1.3133722995476702 1.5535103005973405 L 1.2601023080544398 1.5535103005973405 L 1.2601023080544398 1.6067802920905712 L 1.14839794882998 1.6067802920905712 L 1.14839794882998 1.7717546428082613 L 1.3133722995476702 1.7717546428082613 L 1.3133722995476702 1.6600502835838016 L 1.7550033841384125 1.6600502835838016 L 1.7550033841384125 1.7717546428082613 L 1.9199777348561027 1.7717546428082613 L 1.9199777348561027 1.6067802920905712 L 1.8614389807966587 1.6067802920905712 Z M 1.2095958072502662 1.1187247615305838 L 1.2095958072502662 1.0655591563655682 L 1.1535238669470576 1.0655591563655682 L 1.1535238669470576 1.0123935512005529 L 0.9911262103310923 1.0123935512005529 L 0.9911262103310923 1.0656635426937833 L 1.090342668290689 1.0656635426937833 L 1.090342668290689 1.1188291478587988 L 1.150974642931705 1.1188291478587988 L 1.150974642931705 1.1719947530238144 L 1.205958767814569 1.1719947530238144 L 1.205958767814569 1.2819794848413661 L 1.262838328657124 1.2819794848413661 L 1.262838328657124 1.4478768304611667 L 1.3150919269545784 1.4478768304611667 L 1.3150919269545784 1.552658727919798 L 1.3683619184478089 1.552658727919798 L 1.3683619184478089 1.5001029586722485 L 1.7550033841384125 1.5001029586722485 L 1.7550033841384125 1.552658727919798 L 1.808273375631643 1.552658727919798 L 1.808273375631643 1.4478548543920688 L 1.8605214799118226 1.4478548543920688 L 1.8605214799118226 1.2295445839738546 L 1.858631537969406 1.2295445839738546 L 1.858631537969406 1.2288633258318205 L 1.9150441073436315 1.2288633258318205 L 1.9150441073436315 1.1719947530238144 L 1.9749618597389669 1.1719947530238144 L 1.9749618597389669 1.1187247615305838 Z M 1.370070557820168 1.4468329671790179 L 1.3161083201503547 1.4468329671790179 L 1.3161083201503547 1.391947734607094 L 1.370070557820168 1.391947734607094 Z M 1.370070557820168 1.3386722490965894 L 1.3161083201503547 1.3386722490965894 L 1.3161083201503547 1.281979484841366 L 1.370070557820168 1.281979484841366 Z M 1.370070557820168 1.2287094933481355 L 1.2655798432770833 1.2287094933481355 L 1.2655798432770833 1.1719947530238144 L 1.370070557820168 1.1719947530238144 Z M 1.4800552896377195 1.4468329671790179 L 1.423346043330673 1.4468329671790179 L 1.423346043330673 1.391947734607094 L 1.4800552896377195 1.391947734607094 Z M 1.4800552896377195 1.3386722490965894 L 1.4233570313652217 1.3386722490965894 L 1.4233570313652217 1.281979484841366 L 1.4800552896377195 1.281979484841366 Z M 1.4800552896377195 1.2287094933481355 L 1.4233570313652217 1.2287094933481355 L 1.4233570313652217 1.1719947530238144 L 1.4800552896377195 1.1719947530238144 Z M 1.5900345274379968 1.4468329671790179 L 1.5333307751482246 1.4468329671790179 L 1.5333307751482246 1.391947734607094 L 1.5900345274379968 1.391947734607094 Z M 1.5900345274379968 1.3386722490965894 L 1.5333417631827735 1.3386722490965894 L 1.5333417631827735 1.2819794848413661 L 1.5900345274379968 1.2819794848413661 Z M 1.5900345274379968 1.2287094933481355 L 1.5333417631827735 1.2287094933481355 L 1.5333417631827735 1.1719947530238144 L 1.5900345274379968 1.1719947530238144 Z M 1.700013765238274 1.4468329671790179 L 1.6433045189312272 1.4468329671790179 L 1.6433045189312272 1.391947734607094 L 1.700013765238274 1.391947734607094 Z M 1.700013765238274 1.3386722490965894 L 1.6433100129485019 1.3386722490965894 L 1.6433100129485019 1.2819794848413661 L 1.700013765238274 1.2819794848413661 Z M 1.700013765238274 1.2287094933481355 L 1.6433100129485019 1.2287094933481355 L 1.6433100129485019 1.1719947530238144 L 1.700013765238274 1.1719947530238144 Z M 1.8072514884185922 1.4468329671790179 L 1.7532892507487787 1.4468329671790179 L 1.7532892507487787 1.391947734607094 L 1.8072514884185922 1.391947734607094 Z M 1.8072514884185922 1.3386722490965894 L 1.7532892507487787 1.3386722490965894 L 1.7532892507487787 1.2819794848413661 L 1.8072514884185922 1.2819794848413661 Z M 1.8581810285528997 1.2287094933481355 L 1.7532837567315043 1.2287094933481355 L 1.7532837567315043 1.1719947530238144 L 1.8581810285528997 1.1719947530238144 Z" fill="#3a868f" transform="matrix(1,0,0,1,0,0)" fill-rule="nonzero"></path></g></g><g><path d=" M -0.8805963930993381 1.5409042779610767 A 2.424132305334884 2.424132305334884 0 0 1 3.9676682175704303 1.5409042779610767 A 2.424132305334884 2.424132305334884 0 0 1 -0.8805963930993381 1.5409042779610767 Z M -0.8305963930993381 1.5409042779610769 A 2.3741323053348844 2.3741323053348844 0 0 0 3.917668217570431 1.5409042779610769 A 2.3741323053348844 2.3741323053348844 0 0 0 -0.8305963930993379 1.5409042779610769 Z" fill="#173054" fill-rule="nonzero"></path></g><g><path d=" M -2.212079099400703 1.5409042779610767 A 3.755615011636249 3.755615011636249 0 0 1 5.299150923871795 1.5409042779610767 A 3.755615011636249 3.755615011636249 0 0 1 -2.212079099400703 1.5409042779610767 Z M -2.162079099400703 1.5409042779610767 A 3.705615011636249 3.705615011636249 0 0 0 5.249150923871795 1.5409042779610767 A 3.705615011636249 3.705615011636249 0 0 0 -2.162079099400703 1.5409042779610767 Z" fill="#173054" fill-rule="nonzero"></path></g><g transform="matrix(0.025790330091401376,-0.9996673741168992,0.9996673741168992,0.025790330091401376,-2.9197758660868276,-0.02511438960873802)"><g clip-path="url(#SvgjsClipPath1010)"><path d=" M -1.4722159735784568 1.7216077444502378 C -1.4369894592927426 1.7216077444502378 -1.418275373578457 1.6995911730216662 -1.418275373578457 1.6687679730216662 C -1.418275373578457 1.6522555444502378 -1.4221282735784568 1.6379447730216663 -1.4369894592927426 1.6082224015930948 C -1.4579052021498855 1.5669413301645234 -1.4617581021498856 1.5537313873073806 -1.4656110021498856 1.515752801593095 C -1.4386407021498855 1.5185048730216664 -1.4155233021498854 1.5245594301645236 -1.3962588021498854 1.533366058735952 C -1.3467215164355997 1.5559330444502377 -1.3324107450070284 1.561987601593095 -1.3114950021498855 1.561987601593095 C -1.2828734592927427 1.561987601593095 -1.2597560592927426 1.542723101593095 -1.2597560592927426 1.508047001593095 C -1.2597560592927426 1.4739213158788091 -1.2823230450070282 1.454106401593095 -1.3114950021498855 1.454106401593095 C -1.328007430721314 1.454106401593095 -1.3483727592927428 1.460160958735952 -1.3731414021498856 1.4717196587359522 L -1.3962588021498854 1.4827279444502377 C -1.4177249592927426 1.492635401593095 -1.4408423592927426 1.4986899587359521 -1.4656110021498856 1.5014420301645235 C -1.4617581021498856 1.4684171730216664 -1.452951473578457 1.4392452158788092 -1.4391911164355997 1.4128253301645235 C -1.4254307592927427 1.386955858735952 -1.418275373578457 1.3649392873073807 -1.418275373578457 1.3473260301645236 C -1.418275373578457 1.3187044873073808 -1.4347878021498854 1.2955870873073807 -1.4722159735784568 1.2955870873073807 C -1.5101945592927426 1.2955870873073807 -1.5272574021498855 1.3181540730216663 -1.5272574021498855 1.3473260301645236 C -1.5272574021498855 1.365489701593095 -1.5228540878641712 1.377048401593095 -1.497535030721314 1.4320898301645235 C -1.4887284021498854 1.4513543301645235 -1.4826738450070283 1.4744717301645234 -1.479921773578457 1.5014420301645235 C -1.5068920735784568 1.4986899587359521 -1.5344127878641711 1.4904337444502378 -1.5635847450070284 1.475572558735952 C -1.5922067465427425 1.4612617873073805 -1.6158745608284568 1.454106401593095 -1.6340382322570284 1.454106401593095 C -1.6626597751141712 1.454106401593095 -1.6857771751141712 1.473370901593095 -1.6857771751141712 1.508047001593095 C -1.6857771751141712 1.542723101593095 -1.6632101893998854 1.561987601593095 -1.6340382322570284 1.561987601593095 C -1.6142233179713141 1.561987601593095 -1.6021142036855998 1.5575842873073806 -1.5492739735784569 1.533366058735952 C -1.5300094735784568 1.5245594301645236 -1.5068920735784568 1.5185048730216664 -1.479921773578457 1.515752801593095 C -1.483774673578457 1.548777658735952 -1.4925813021498855 1.577949615878809 -1.5063416592927426 1.604369501593095 C -1.5201020164355998 1.6302389730216664 -1.5272574021498855 1.6517051301645236 -1.5272574021498855 1.6687679730216662 C -1.5272574021498855 1.699040758735952 -1.5085433164355997 1.7216077444502378 -1.4722159735784568 1.7216077444502378 Z" fill="#173054" transform="matrix(1,0,0,1,0,0)" fill-rule="nonzero"></path></g></g><g transform="matrix(-0.025790330091401376,-0.9996673741168992,-0.9996673741168992,0.025790330091401376,6.162430909392121,6.00549736593825)"><g clip-path="url(#SvgjsClipPath1011)"><path d=" M 4.560402386978121 1.7216077444502378 C 4.595628901263836 1.7216077444502378 4.614342986978121 1.6995911730216662 4.614342986978121 1.6687679730216662 C 4.614342986978121 1.6522555444502378 4.610490086978121 1.6379447730216663 4.595628901263836 1.6082224015930948 C 4.574713158406692 1.5669413301645234 4.570860258406692 1.5537313873073806 4.567007358406692 1.515752801593095 C 4.5939776584066925 1.5185048730216664 4.617095058406693 1.5245594301645236 4.636359558406692 1.533366058735952 C 4.685896844120978 1.5559330444502377 4.70020761554955 1.561987601593095 4.721123358406692 1.561987601593095 C 4.749744901263835 1.561987601593095 4.772862301263835 1.542723101593095 4.772862301263835 1.508047001593095 C 4.772862301263835 1.4739213158788091 4.7502953155495495 1.454106401593095 4.721123358406692 1.454106401593095 C 4.704610929835264 1.454106401593095 4.684245601263835 1.460160958735952 4.659476958406692 1.4717196587359522 L 4.636359558406692 1.4827279444502377 C 4.614893401263835 1.492635401593095 4.591776001263836 1.4986899587359521 4.567007358406692 1.5014420301645235 C 4.570860258406692 1.4684171730216664 4.579666886978121 1.4392452158788092 4.593427244120978 1.4128253301645235 C 4.607187601263835 1.386955858735952 4.614342986978121 1.3649392873073807 4.614342986978121 1.3473260301645236 C 4.614342986978121 1.3187044873073808 4.5978305584066925 1.2955870873073807 4.560402386978121 1.2955870873073807 C 4.522423801263836 1.2955870873073807 4.505360958406692 1.3181540730216663 4.505360958406692 1.3473260301645236 C 4.505360958406692 1.365489701593095 4.509764272692407 1.377048401593095 4.535083329835264 1.4320898301645235 C 4.543889958406693 1.4513543301645235 4.54994451554955 1.4744717301645234 4.552696586978121 1.5014420301645235 C 4.525726286978121 1.4986899587359521 4.498205572692407 1.4904337444502378 4.46903361554955 1.475572558735952 C 4.440411614013835 1.4612617873073805 4.416743799728121 1.454106401593095 4.39858012829955 1.454106401593095 C 4.369958585442407 1.454106401593095 4.346841185442407 1.473370901593095 4.346841185442407 1.508047001593095 C 4.346841185442407 1.542723101593095 4.369408171156692 1.561987601593095 4.39858012829955 1.561987601593095 C 4.418395042585264 1.561987601593095 4.430504156870978 1.5575842873073806 4.483344386978121 1.533366058735952 C 4.502608886978121 1.5245594301645236 4.525726286978121 1.5185048730216664 4.552696586978121 1.515752801593095 C 4.548843686978121 1.548777658735952 4.540037058406693 1.577949615878809 4.526276701263836 1.604369501593095 C 4.512516344120979 1.6302389730216664 4.505360958406692 1.6517051301645236 4.505360958406692 1.6687679730216662 C 4.505360958406692 1.699040758735952 4.524075044120978 1.7216077444502378 4.560402386978121 1.7216077444502378 Z" fill="#173054" transform="matrix(1,0,0,1,0,0)" fill-rule="nonzero"></path></g></g></g><defs><clipPath id="SvgjsClipPath1009"><path d=" M 0 0 h 3.0870718244710926 v 3.0818085559221537 h -3.0870718244710926 Z"></path></clipPath><clipPath id="bc593b0a9-e915-493b-b4c0-bfaaa1ed488099fa1d9e-962e-47bd-969f-8a2a982390b1"><path d=" M -0.0054940172744668385 -0.005494017274467054 L 3.0925658417455604 -0.005494017274467054 L 3.0925658417455604 3.087308067213895 L -0.0054940172744668385 3.087308067213895 Z"></path></clipPath><clipPath id="SvgjsClipPath1010"><path d=" M -1.7938482680427426 1.1644050158788093 h 0.6421499999999999 v 0.6421499999999999 h -0.6421499999999999 Z"></path></clipPath><clipPath id="SvgjsClipPath1011"><path d=" M 4.238770092513835 1.1644050158788093 h 0.6421499999999999 v 0.6421499999999999 h -0.6421499999999999 Z"></path></clipPath></defs></svg>