<svg id="visual" viewBox="0 0 960 540" width="960" height="540" xmlns="http://www.w3.org/2000/svg" xmlns:xlink="http://www.w3.org/1999/xlink" version="1.1"><rect x="0" y="0" width="960" height="540" fill="#002233"></rect><path d="M331 0L312.2 22.5C293.3 45 255.7 90 245.2 135C234.7 180 251.3 225 252.7 270C254 315 240 360 217.5 405C195 450 164 495 148.5 517.5L133 540L0 540L0 517.5C0 495 0 450 0 405C0 360 0 315 0 270C0 225 0 180 0 135C0 90 0 45 0 22.5L0 0Z" fill="#0066FF" stroke-linecap="round" stroke-linejoin="miter"></path></svg>